<svg width="26" height="31" viewBox="0 0 26 31" fill="none" xmlns="http://www.w3.org/2000/svg">
<path d="M21.663 29.7562C19.983 31.3922 18.1488 31.1338 16.3831 30.3589C14.5146 29.5668 12.8004 29.5324 10.829 30.3589C8.36048 31.4266 7.05766 31.1166 5.58341 29.7562C-2.78208 21.0946 -1.54782 7.904 7.94906 7.42184C10.2633 7.54238 11.8747 8.69612 13.2289 8.79944C15.2517 8.38616 17.1888 7.19798 19.3488 7.35296C21.9373 7.5596 23.8915 8.5928 25.1772 10.4526C19.8287 13.6727 21.0973 20.7502 26 22.7305C25.0229 25.3135 23.7543 27.8793 21.6458 29.7735L21.663 29.7562ZM13.0575 7.31852C12.8004 3.47845 15.9031 0.309961 19.4688 0C19.9659 4.44277 15.4574 7.74902 13.0575 7.31852Z" fill="#13212B"/>
</svg>
