<svg width="30" height="31" viewBox="0 0 30 31" fill="none" xmlns="http://www.w3.org/2000/svg">
<path d="M29.7689 14.105H15.6394V18.3365H25.6703C25.1618 24.242 20.2774 26.7685 15.6549 26.7685C9.75347 26.7685 4.57627 22.0875 4.57627 15.5C4.57627 9.145 9.50693 4.2315 15.6703 4.2315C20.4314 4.2315 23.2203 7.285 23.2203 7.285L26.1479 4.216C26.1479 4.216 22.3883 0 15.5162 0C6.76425 0 0 7.44 0 15.5C0 23.3275 6.36364 31 15.7473 31C23.9908 31 30 25.3115 30 16.9105C30 15.128 29.7689 14.105 29.7689 14.105Z" fill="#13212B"/>
</svg>
