<svg id="Layer_1" data-name="Layer 1" xmlns="http://www.w3.org/2000/svg" viewBox="0 0 1012 1052"><path d="M734.37,934c-46.49,28.2-97.17,45.25-150.49,53.86-59.55,9.61-119.37,8.92-178.32-4.38C305.84,961,221.26,911.88,153.46,835,97.41,771.5,60,698,45.39,614.7,19.37,466.75,54,333.88,151.9,219c54.95-64.45,123.78-109.54,203.83-136.47,94-31.59,189.14-32.93,284.36-5.24,60.69,17.64,115.37,47.17,163.85,87.66,86.62,72.36,142.2,163.88,162.67,274.79,18,97.71,7.19,193-35.65,283.5-27.13,57.33-63.48,108.23-111.08,150.46-23.72,21-48.51,40.93-77.1,55.37C740.29,931.25,736.16,930.67,734.37,934Z" fill="#ff0042"/><path d="M734.37,934c.35-5.8,4.76-4.74,8.41-5C740.93,932.33,737.92,933.64,734.37,934Z" fill="#f41452"/><path d="M441.26,495.6c13.34,0,26.71-.62,40,.22,7.8.5,13.27-2.78,17.95-7.64C551.35,434,604.84,381.23,658.56,328.65c10.05-9.83,19.69-20.08,29.34-30.29,6.52-6.9,12.4-7.42,19.16,0a302.24,302.24,0,0,0,23.49,23.32c8.31,7.31,7.75,12.93,0,20.6Q656,416,582,490.41c-8.6,8.59-16.73,17.74-25.92,25.64-8.35,7.18-8.23,12.06-.26,19.93C608.13,587.57,660,639.65,712,691.57c6.46,6.46,12.72,13.13,19.46,19.29s7.64,11.41.41,18c-8.69,7.93-17,16.35-24.92,25-6.29,6.86-11,6.66-17.66-.07-35-35.42-70.39-70.42-105.64-105.58C555.36,620.05,527,592,499,563.5c-5.58-5.67-11.35-7.61-19.13-7.49-27,.42-54.1-.07-81.15.34-9.84.15-13.87-3.55-13.5-13.38.45-11.79.22-23.6.1-35.41-.09-8.59,3.68-12.33,12.51-12.07C412.3,495.9,426.78,495.6,441.26,495.6Z" fill="#f5f5f5"/><path d="M333.76,526.67q0,105,0,210c0,15-.1,15.07-15.44,15.1-11.42,0-22.84-.25-34.25.08-7.36.21-10.47-3.08-10.42-10.12,0-6.08,0-12.17,0-18.25l0-406.28c0-16.55.48-17,17.46-17,9.9,0,19.82.48,29.68-.13s13.34,3.37,13.25,13.25c-.37,41.46-.16,82.92-.16,124.39Q333.77,482.17,333.76,526.67Z" fill="#f6f4f4"/></svg>